<svg width="171" height="158" viewBox="0 0 171 158" fill="none" xmlns="http://www.w3.org/2000/svg">
<rect width="171" height="158" rx="12" fill="#FFCD00"/>
<path d="M36.8194 65.7384C36.8194 65.7384 42.8828 45.6991 54.8872 44.8223C66.8356 43.9507 72.6646 65.4473 72.0822 77.6486C70.4709 111.387 61.0083 107.86 60.4259 107.86C57.5122 107.86 51.6832 97.4019 58.0946 79.9724C64.2496 63.2402 70.0074 56.1909 80.066 48.7117C84.9051 45.1134 90.1517 46.2745 90.1517 46.2745C90.1517 46.2745 96.5631 47.4373 98.02 56.4414C100.069 69.1116 94.5222 87.8155 94.5222 87.8155L108.512 92.4632C108.512 92.4632 112.3 78.8097 113.174 68.6427C113.675 62.8256 118.711 53.8282 124.248 52.9566C128.89 52.2254 133.11 57.8885 132.991 63.4146C132.699 77.0681 128.036 93.917 125.122 104.375C122.209 114.833 119.878 119.481 119.878 119.481L135.324 125C135.324 125 153.684 73.5815 144.358 51.5044C140.818 43.1231 130.953 39.8853 125.707 39.8853C121.626 39.8853 115.797 41.048 110.552 47.439C110.552 47.439 107.639 36.9809 93.9415 33.7855C87.1073 32.1911 75.5817 36.4004 71.5016 39.8853C67.4214 43.3719 47.0224 56.7342 41.4854 90.141C37.8297 112.193 49.936 120.061 56.9315 121.224C63.9253 122.387 73.8345 121.224 79.3715 111.638C84.7183 102.381 88.1142 85.4223 86.6574 73.8388C85.2005 62.2552 84.034 46.5673 66.8407 35.8182C56.378 29.2783 44.1087 35.8182 40.3206 38.4331C26.6607 47.8604 24 60.5102 24 60.5102L36.8194 65.7384Z" fill="#191919"/>
</svg>
