<svg width="120" height="38" viewBox="0 0 120 38" fill="none" xmlns="http://www.w3.org/2000/svg">
<path d="M58.579 0V5.82818L52.9412 3.47291V1.73645L58.579 0Z" fill="black"/>
<path d="M113.927 26.0454C113.927 26.0454 113.867 21.4968 113.914 19.9223C113.953 17.9602 113.953 15.6209 113.91 14.684C113.867 13.7514 113.771 12.9432 113.632 12.2752C113.307 10.7383 112.683 9.55847 111.776 8.76904C110.866 7.97962 109.702 7.58056 108.311 7.58056C107.167 7.58056 106.065 7.58056 104.773 8.39025C103.481 9.19993 103.394 9.41922 103.059 10.0076C102.723 10.5961 102.655 11.0185 102.655 11.0185C102.192 9.82569 101.568 8.99026 100.799 8.40903C100.032 7.8278 99.0596 7.53719 97.911 7.53719C96.9227 7.53719 95.2026 7.79336 94.4874 8.18807C93.7722 8.58279 93.3782 8.89568 92.874 9.5022C92.3697 10.1087 92.0672 10.412 92.0672 10.412L87.3635 8.63024L87.4892 19.9873L83.4739 24.2135V11.72L77.4026 9.11605C77.4026 9.11605 71.1059 9.89246 66.5604 13.8902C65.3337 14.9659 64.4653 16.4898 63.9149 18.3477L58.6758 24.2149L58.4302 10.4173L52.3589 8.0736L52.6276 21.8785C51.083 23.3981 47.4926 26.9172 47.4796 26.9172C48.9851 20.4254 50.1251 12.3967 48.1471 7.68756C46.7282 4.32454 42.7823 3.02183 40.6829 3.02183C39.0517 3.02183 36.7197 3.49029 34.6203 6.05521C34.6203 6.05521 33.4586 1.85504 27.9768 0.574027C25.34 -0.0462383 20.9476 1.50659 19.1776 2.8787C18.5708 2.36253 17.8903 1.86372 17.1346 1.38948C12.9503 -1.2405 8.04498 1.38948 6.52644 2.43916C1.06197 6.22292 0 11.305 0 11.305L5.1307 13.4015C5.1307 13.4015 7.55518 5.35542 12.3564 5.00408C13.5138 4.91733 14.5295 5.35976 15.3964 6.15352C12.3608 9.19557 8.43221 14.5076 6.99602 23.2C5.53382 32.0572 10.3741 35.2163 13.1713 35.6848C15.9729 36.1489 19.9362 35.6848 22.1483 31.836C24.2867 28.1173 25.6477 21.3074 25.0625 16.6561C24.6898 13.6704 24.3647 10.0081 22.3563 6.62198C22.3823 6.60463 22.404 6.58294 22.43 6.56559C24.3647 5.12119 26.4626 5.58531 26.4626 5.58531C26.4626 5.58531 29.0258 6.05376 29.611 9.66836C30.4302 14.7592 28.2109 22.266 28.2109 22.266L33.8054 24.1325C33.8054 24.1325 35.3239 18.6514 35.6707 14.5683C35.8744 12.2333 37.8871 8.61868 40.1035 8.27167C41.9602 7.97672 43.6463 10.251 43.5987 12.4675C43.4816 17.953 41.6163 24.7181 40.4546 28.9197C39.2886 33.1155 39.1261 33.2576 39.1261 33.2576L45.8824 35.6837L52.7706 29.3188L52.7923 30.3771L58.8636 32.5502L63.6779 26.735C64.5318 29.5776 66.4621 31.275 68.7306 31.6827C71.9179 32.2509 75.6688 30.3815 75.6688 30.3815L77.8375 27.3437L78.271 30.8152L83.4754 32.1685L87.5687 27.3466L87.6033 30.3713L92.9031 32.2509L92.7427 16.6402C92.8381 15.2464 93.1242 14.136 93.5966 13.3466C94.0994 12.4964 94.7973 12.067 95.6743 12.067C96.2162 12.067 96.7233 12.3273 97.1365 12.8174C97.505 13.2598 97.7694 13.8367 97.9167 14.5365C97.9644 14.7621 97.9991 14.9703 98.0251 15.1654C98.0511 15.378 98.0555 15.5862 98.0381 15.7944L98.2115 30.38L103.507 32.2509L103.347 16.6359C103.451 15.2739 103.732 14.1837 104.187 13.3943C104.677 12.5441 105.34 12.1104 106.161 12.1104C106.811 12.1104 107.392 12.388 107.844 12.9041C108.256 13.3813 108.542 14.0362 108.724 14.9008C108.841 15.443 108.919 16.0937 108.967 16.8889C109.015 17.661 109.158 29.9087 109.158 29.9087L115.281 32.0138L120 26.3158V19.1979L113.927 26.0454ZM19.234 18.1901C18.5925 31.7391 14.8055 30.3193 14.5714 30.3193C13.4054 30.3193 11.0763 26.1177 13.6395 19.1227C15.0482 15.2739 16.4064 12.7003 18.0636 10.6429C18.9436 13.1601 19.338 16.0373 19.234 18.1901ZM77.8375 21.3493C77.8375 21.3493 74.3901 27.2209 72.1997 26.9085C69.164 26.4748 68.7306 25.1721 68.7306 22.1344C68.7306 16.4233 74.3814 14.3225 75.8956 13.8888H77.839V21.3493H77.8375Z" fill="black"/>
</svg>
