<svg width="119" height="37" viewBox="0 0 119 37" fill="none" xmlns="http://www.w3.org/2000/svg">
<path d="M112.978 25.9053C112.978 25.9053 112.918 21.3812 112.965 19.8151C113.004 17.8637 113.004 15.5369 112.961 14.605C112.918 13.6774 112.823 12.8736 112.686 12.2092C112.363 10.6805 111.744 9.50706 110.844 8.72187C109.942 7.93669 108.788 7.53978 107.408 7.53978C106.274 7.53978 105.309 7.83746 104.54 8.42419C103.801 8.99367 103.154 9.39489 102.475 10.6302L102.05 11.657L101.8 11.0228C101.34 9.83637 100.722 8.9419 99.9593 8.36379C99.1984 7.78569 98.2341 7.49664 97.095 7.49664C96.115 7.49664 95.2582 7.69509 94.5489 8.08768C93.8397 8.48028 93.2809 8.95053 92.4327 9.75441L91.7922 10.5612L86.6355 8.58382L86.7601 19.8798L82.7783 24.0833V11.657L76.7576 9.06701C76.7576 9.06701 70.5134 9.83925 66.0057 13.8155C64.7893 14.8854 63.9281 16.4011 63.3822 18.2491L58.1868 24.0847L57.9432 10.3613L51.9225 8.03016L52.189 21.7608C50.6573 23.2722 47.0968 26.7725 47.0839 26.7725C48.5769 20.3156 49.7074 12.33 47.7459 7.6462C46.3388 4.30126 42.4258 3.00556 40.3439 3.00556C38.7263 3.00556 36.4137 3.47149 34.3318 6.02262C34.3318 6.02262 33.1798 1.84504 27.7437 0.570914C25.1288 -0.0460168 20.773 1.49847 19.0178 2.86319C18.416 2.3498 17.7412 1.85367 16.9918 1.38198C12.8424 -1.23386 7.97794 1.38198 6.47205 2.42602C1.05312 6.18944 0 11.2442 0 11.2442L5.08794 13.3294C5.08794 13.3294 7.49222 5.3266 12.2535 4.97715C13.4012 4.89087 14.4084 5.33091 15.2681 6.12041C12.2578 9.1461 8.36194 14.4296 6.93772 23.0752C5.4877 31.8848 10.2876 35.027 13.0616 35.4929C15.8398 35.9545 19.7701 35.4929 21.9637 31.6648C24.0843 27.9661 25.434 21.1928 24.8537 16.5665C24.484 13.5969 24.1616 9.9543 22.17 6.58635C22.1958 6.56909 22.2173 6.54752 22.2431 6.53026C24.1616 5.09363 26.2421 5.55525 26.2421 5.55525C26.2421 5.55525 28.7839 6.02118 29.3642 9.61635C30.1766 14.6798 27.9758 22.1462 27.9758 22.1462L33.5237 24.0028C33.5237 24.0028 35.0296 18.5511 35.3735 14.49C35.5755 12.1675 37.5714 8.57231 39.7694 8.22718C41.6105 7.93381 43.2826 10.1959 43.2353 12.4004C43.1193 17.8565 41.2695 24.5852 40.1175 28.7642C38.9612 32.9375 38.0356 34.794 38.0356 34.794L44.1595 37L52.3309 29.1611L52.3524 30.2138L58.3731 32.3752L63.1472 26.5913C63.994 29.4185 65.9083 31.1068 68.1578 31.5123C71.3186 32.0775 75.0382 30.2181 75.0382 30.2181L77.1889 27.1967L77.6187 30.6495L82.7797 31.9955L86.8389 27.1996L86.8733 30.208L92.1289 32.0775L91.9698 16.5507C92.0644 15.1644 92.3481 14.06 92.8166 13.2748C93.3153 12.4292 94.0073 12.0021 94.877 12.0021C95.4144 12.0021 95.9173 12.261 96.3271 12.7485C96.6924 13.1885 96.9546 13.7623 97.1008 14.4583C97.1481 14.6827 97.1824 14.8897 97.2082 15.0839C97.234 15.2953 97.2383 15.5024 97.2211 15.7094L97.3931 30.2166L102.644 32.0775L102.485 16.5464C102.588 15.1917 102.868 14.1074 103.319 13.3222C103.805 12.4767 104.463 12.0452 105.276 12.0452C105.921 12.0452 106.497 12.3214 106.946 12.8347C107.354 13.3093 107.638 13.9607 107.818 14.8207C107.934 15.36 108.012 16.0071 108.059 16.7981C108.106 17.566 108.248 29.7478 108.248 29.7478L114.32 31.8417L119 26.1742V19.0946L112.978 25.9053ZM19.0737 18.0923C18.4375 31.5684 14.6821 30.1562 14.45 30.1562C13.2937 30.1562 10.984 25.9772 13.5258 19.0199C14.9228 15.1917 16.2697 12.632 17.9131 10.5856C18.7857 13.0893 19.1769 15.951 19.0737 18.0923ZM77.1889 21.2345C77.1889 21.2345 73.7702 27.0745 71.598 26.7639C68.5877 26.3324 68.1578 25.0367 68.1578 22.0154C68.1578 16.335 73.7616 14.2455 75.2632 13.8141H77.1903V21.2345H77.1889Z" fill="#364630"/>
</svg>
